# Blender 3.5.1
# www.blender.org
o Pebble
v 0.125620 -0.314045 -0.415502
v 0.280066 -0.291793 0.121432
v 0.370140 0.334813 0.278404
v -0.172397 -0.427198 -0.395148
v -0.213222 0.007423 -0.399176
v -0.166816 -0.363021 0.310462
v -0.310059 0.311439 0.331102
v 0.315651 -0.344747 -0.191811
v 0.406100 0.329496 -0.080317
v -0.381893 -0.393666 -0.019655
v -0.260557 0.436054 0.017398
v 0.096688 -0.393888 0.278292
v 0.030727 0.412257 0.392415
v 0.076293 0.356696 -0.446427
v -0.005263 0.476942 -0.192179
v 0.093957 -0.459363 -0.019316
v 0.243754 -0.164843 -0.413025
v 0.438567 -0.061885 0.149910
v -0.302353 -0.204521 0.354863
v -0.444580 -0.053654 -0.040667
v -0.021671 -0.053885 0.464296
vn 0.9857 -0.0170 -0.1679
vn -0.3031 0.1060 0.9470
vn -0.8108 0.3595 -0.4620
vn -0.0616 -0.0835 -0.9946
vn -0.1368 -0.9905 0.0122
vn 0.3915 0.8740 -0.2878
vn 0.2866 0.9562 0.0602
vn -0.1191 -0.9744 0.1905
vn -0.9681 0.1633 0.1900
vn 0.7359 0.1948 -0.6485
vn 0.5764 -0.7959 0.1853
vn -0.1792 0.9632 0.2003
vn -0.6410 0.5291 -0.5561
vn 0.2826 -0.9076 -0.3103
vn 0.4676 -0.0492 0.8826
vn 0.5897 -0.3205 0.7413
vn -0.8308 -0.0831 -0.5503
vn 0.6304 -0.4892 -0.6027
vn -0.8596 -0.3589 0.3638
vn -0.0450 0.0033 -0.9990
vn -0.8647 -0.1882 -0.4656
vn -0.0326 -0.4330 0.9008
vn 0.9566 -0.2620 -0.1272
vt 0.125000 0.750000
vt 0.375000 0.000000
vt 0.375000 1.000000
vt 0.125000 0.500000
vt 0.375000 0.250000
vt 0.875000 0.500000
vt 0.625000 0.250000
vt 0.250000 0.750000
vt 0.375000 0.875000
vt 0.375000 0.750000
vt 0.625000 0.750000
vt 0.500000 0.875000
vt 0.375000 0.500000
vt 0.625000 0.500000
vt 0.125000 0.625000
vt 0.375000 0.125000
vt 0.875000 0.625000
vt 0.625000 0.125000
vt 0.375000 0.625000
vt 0.625000 0.625000
vt 0.250000 0.500000
vt 0.375000 0.375000
vt 0.750000 0.500000
vt 0.625000 0.375000
vt 0.625000 1.000000
vt 0.625000 0.000000
vt 0.750000 0.750000
vt 0.750000 0.625000
vt 0.250000 0.625000
vt 0.500000 0.000000
vt 0.500000 1.000000
vt 0.500000 0.125000
vt 0.500000 0.250000
vt 0.500000 0.500000
vt 0.500000 0.625000
vt 0.500000 0.750000
vt 0.500000 0.375000
s 0
f 17/32/1 9/18/1 3/7/1 18/33/1
f 21/37/2 13/24/2 7/14/2 19/34/2
f 20/35/3 11/20/3 5/11/3
f 5/12/4 14/25/4 17/31/4
f 16/29/5 10/19/5 4/8/5
f 15/28/6 9/17/6 14/27/6
f 13/23/7 3/6/7 9/17/7 15/28/7
f 12/21/8 6/13/8 10/19/8 16/29/8
f 19/34/9 7/14/9 11/20/9 20/35/9
f 17/30/10 14/26/10 9/18/10
f 2/4/11 12/21/11 16/29/11 8/15/11
f 7/14/12 13/23/12 15/28/12 11/20/12
f 11/20/13 15/28/13 14/27/13 5/11/13
f 8/15/14 16/29/14 4/8/14 1/1/14
f 18/33/15 3/7/15 13/24/15 21/37/15
f 2/5/16 18/33/16 21/37/16 12/22/16
f 4/10/17 20/36/17 5/12/17
f 1/2/18 17/32/18 8/16/18
f 6/13/19 19/34/19 20/35/19 10/19/19
f 4/9/20 5/12/20 17/31/20 1/3/20
f 10/19/21 20/36/21 4/10/21
f 12/22/22 21/37/22 19/34/22 6/13/22
f 8/16/23 17/32/23 18/33/23 2/5/23
